<svg id="Layer_1" data-name="Layer 1" xmlns="http://www.w3.org/2000/svg" viewBox="0 0 141.33 62.63"><defs><style>.cls-1{fill:#4f46e5;}</style></defs><path class="cls-1" d="M119.57,36.06h-7.22c-.32-2.28-1.52-3.81-3.89-3.81-1.65,0-2.77.8-2.77,2.49s1.29,2.84,5.86,3.93c6.09,1.44,8.58,4.49,8.58,8.74,0,5.53-5.3,8.34-10.87,8.34-7,0-11.75-2.81-12.19-9h7.22a4.53,4.53,0,0,0,4.77,3.73c2,0,3.53-1,3.53-2.57s-1-2.69-4.45-3.53c-6.3-1.56-10-3.53-10-9.06,0-5.33,5-8.34,10.47-8.34C115.92,26.94,119,30.91,119.57,36.06Z" transform="translate(-20.42 -11.11)"/><path class="cls-1" d="M124.05,55.17V27.5h7.22V55.17Z" transform="translate(-20.42 -11.11)"/><path class="cls-1" d="M161.75,36.6V37h-7.21l-.08-.4a4.91,4.91,0,0,0-5.34-4.37c-3.45,0-6.05,2.89-6.05,8.86,0,7,2.89,9.35,6.09,9.35,2.81,0,4.62-1.73,5.22-4.78l.08-.4h7.21v.4C161,52.32,155.9,55.73,149,55.73c-7.42,0-13.39-4.81-13.39-14.2,0-9.62,6.18-14.59,13.67-14.59C157.14,26.94,161.19,31.15,161.75,36.6Z" transform="translate(-20.42 -11.11)"/><path class="cls-1" d="M50.91,73.73c-.63-.43-.6-1.07-.59-1.73,0-1.33,0-1.33-1.31-1.33H44.92a4.2,4.2,0,0,1-4.46-4.44v-10c-.25-.05-.36.13-.5.23l-3.77,2.91c-.4.32-.78.62-1.32.35s-.51-.77-.51-1.27V56.1c0-.43-.12-.54-.54-.54H26.29A5.62,5.62,0,0,1,20.52,51a4.15,4.15,0,0,1-.08-.79V40.81c0-.67.31-1,.9-1s.9.33.93,1v8.87a4.44,4.44,0,0,0,.11,1.21,3.64,3.64,0,0,0,3.3,2.81c1.43.08,2.86,0,4.28,0h5.09c.83,0,1.13.31,1.15,1.15v2l.09.1,2.87-2.21c.14-.11.28-.24.43-.34a3.1,3.1,0,0,0,1.21-1.51,4,4,0,0,1,3.6-2.6,12.2,12.2,0,0,1,1.71,0c.42,0,.51-.14.51-.52V33.5a3.8,3.8,0,0,0-3.5-4.08,5.8,5.8,0,0,0-.59,0H26.33a3.77,3.77,0,0,0-4.06,3.46,3.21,3.21,0,0,0,0,.62v1.59a.86.86,0,0,1-.7,1h-.25c-.57,0-.88-.32-.87-1a15.07,15.07,0,0,1,.11-3,5.53,5.53,0,0,1,5.34-4.44H43.21c.95.05.95.05.95-.95v-9a6.73,6.73,0,0,1,6.46-6.49c4.38-.08,8.77,0,13.15,0a.85.85,0,0,1,1,.68.77.77,0,0,1,0,.26c0,.59-.35.89-1.06.89H51.05a5,5,0,0,0-5,4,6.28,6.28,0,0,0-.1,1.22v9.91a1,1,0,0,0,.4.81,5.51,5.51,0,0,1,2.07,4.43V43a.73.73,0,0,0,.54.81,5.57,5.57,0,0,0,2.2.43H61.8c1,0,1.29.27,1.29,1.31v3.14c1.69-1.28,3.3-2.48,4.86-3.73a3,3,0,0,1,2.17-.74,15.92,15.92,0,0,0,2.93-.06,4.92,4.92,0,0,0,4.26-4.78V17.81A5,5,0,0,0,72.45,13H69.76c-.69,0-1-.32-1-.92s.35-.92,1-.91a18.33,18.33,0,0,1,4.25.23,6.77,6.77,0,0,1,5.12,6.4V39.48a6.79,6.79,0,0,1-6.62,6.61,2.53,2.53,0,0,1-.55,0,5.11,5.11,0,0,0-4.36,1.45c-1.47,1.29-3.09,2.39-4.64,3.58a1,1,0,0,1-1.17.27c-.49-.23-.55-.64-.55-1.11V46.79c0-.62-.18-.72-.74-.71H52.84a10.55,10.55,0,0,1-4.39-.51V50c0,.44.31.29.51.29h7.15a6.5,6.5,0,0,1,1.7.17,4.1,4.1,0,0,1,3,3.61c.09,1.65.06,3.3,0,5a.83.83,0,0,1-.76.9h-.18a.81.81,0,0,1-.88-.75.75.75,0,0,1,0-.15V54.94A2.42,2.42,0,0,0,57,52.22a2.49,2.49,0,0,0-.61,0H45a2.42,2.42,0,0,0-2.67,2.14,2.62,2.62,0,0,0,0,.56V66.16a2.42,2.42,0,0,0,2.15,2.68,2,2,0,0,0,.55,0h5.8c1.12,0,1.37.24,1.37,1.35V71c.56-.43,1.08-.77,1.53-1.18a3.44,3.44,0,0,1,2.7-1,2.35,2.35,0,0,0,2.64-2,2,2,0,0,0,0-.54V64.73a.8.8,0,0,1,.76-.84h.1a.82.82,0,0,1,.93.69.62.62,0,0,1,0,.13,9.57,9.57,0,0,1-.09,2.62,4.16,4.16,0,0,1-4.1,3.28,3,3,0,0,0-2.08.74c-1,.82-2,1.56-3,2.34Z" transform="translate(-20.42 -11.11)"/><path class="cls-1" d="M65.33,25.53h4.35a2.36,2.36,0,0,1,2.53,2.16,2,2,0,0,1,0,.35V36.6A2.3,2.3,0,0,1,70.05,39H60.7a5.36,5.36,0,0,1-2.56-.72c-.22-.13-.37-.18-.55.06a.83.83,0,0,1-.77.28H52.18c-.73,0-1.06-.31-1.06-1V26.79c0-.76.32-1.06,1.09-1.06h4.53a1.38,1.38,0,0,1,.53.06c.49.47.71.06,1-.25.66-.75,1.33-1.49,2-2.24A5.38,5.38,0,0,0,61.63,20a2.41,2.41,0,0,1,.16-.95,1.87,1.87,0,0,1,1.64-1.19,1.76,1.76,0,0,1,1.76,1,7.07,7.07,0,0,1,.5,5.89A7.14,7.14,0,0,0,65.33,25.53ZM63.5,19.65a1.12,1.12,0,0,1-.08.35,7.43,7.43,0,0,1-2.15,4.91c-1,1.14-2.06,2.32-3.09,3.48a1,1,0,0,0-.31.75V35.5a.74.74,0,0,0,.33.66,4.77,4.77,0,0,0,3,1.07h8.31c.68,0,.81-.14.81-.83V28.2c0-.74-.1-.83-.87-.83H64.13c-1,0-1.38-.58-1-1.53A18.12,18.12,0,0,0,64,23.69a5.24,5.24,0,0,0-.48-4ZM53,32.14v4.15c0,.45.14.55.55.53h2.14c.3,0,.42,0,.42-.39V27.94c0-.31-.09-.38-.38-.38h-2.2c-.45,0-.53.14-.52.55,0,1.34,0,2.68,0,4Z" transform="translate(-20.42 -11.11)"/><path class="cls-1" d="M30.05,38.89h.61c1.37,0,1.37,0,1.57-1.39.09-.63.19-1.25.31-1.87a.89.89,0,0,1,1.07-.83c.55.09.81.49.72,1.13-.11.85-.25,1.69-.4,2.54,0,.3,0,.45.33.42.57,0,1.26.17,1.68-.08s.28-1,.4-1.58.18-1.12.29-1.68a.9.9,0,0,1,1-.76h.07a.91.91,0,0,1,.74,1.06v0c-.12.79-.23,1.57-.4,2.35-.13.54,0,.71.57.66a17.42,17.42,0,0,1,1.77,0c.77,0,1.18.33,1.17.93s-.39.9-1.13.9H38.08c-.37,0-.49.12-.53.46a10.6,10.6,0,0,1-.23,1.39c-.08.36,0,.41.36.41h3a.83.83,0,0,1,.87.79v.06a.89.89,0,0,1-.75,1H37.42c-.35,0-.49.09-.54.46-.12.93-.29,1.85-.46,2.77-.12.66-.54,1-1.1.87a1,1,0,0,1-.69-1.22c.13-.78.25-1.57.4-2.35.07-.37,0-.58-.43-.53a2.78,2.78,0,0,1-.91,0c-.64-.11-.89.15-1,.78-.07.81-.24,1.61-.38,2.41s-.5,1-1.07.91-.84-.52-.74-1.18c.12-.85.26-1.69.43-2.53.06-.31,0-.39-.33-.39H28.46c-.72,0-1.11-.38-1.09-1s.41-.87,1.09-.88h2.39c.31,0,.48-.06.51-.42,0-.58.46-1.32.17-1.7s-1.1-.09-1.68-.12-1.06,0-1.59,0a.87.87,0,0,1-.89-.85v0a.89.89,0,0,1,.86-.92H30ZM34.31,43c1.07,0,1.07,0,1.26-1.09v0c.21-1.12.21-1.12-.89-1.12s-1.15,0-1.34,1.16-.2,1.1.93,1.1Z" transform="translate(-20.42 -11.11)"/><path class="cls-1" d="M45.4,59.61a3.25,3.25,0,0,1,3.08-3.41,3.32,3.32,0,0,1,1.92.51.32.32,0,0,0,.43,0,3.13,3.13,0,0,1,3.9.28,3.67,3.67,0,0,1,1,4,4.58,4.58,0,0,1-1.13,1.86,13,13,0,0,1-3.49,2.42.85.85,0,0,1-.82,0,11.81,11.81,0,0,1-3.87-2.81A4.35,4.35,0,0,1,45.4,59.61Zm8.69.16a1.59,1.59,0,0,0-1-1.64c-.66-.23-1.1-.06-1.63.67s-1.15.59-1.64-.12a1.26,1.26,0,0,0-1.34-.63,1.36,1.36,0,0,0-1.14,1A2.47,2.47,0,0,0,48,61.52a9.41,9.41,0,0,0,2.46,1.79.36.36,0,0,0,.44,0,10,10,0,0,0,2.45-1.79,2.59,2.59,0,0,0,.71-1.75Z" transform="translate(-20.42 -11.11)"/></svg>